<?xml version="1.0" standalone="no"?>
<!DOCTYPE svg PUBLIC "-//W3C//DTD SVG 20010904//EN"
 "http://www.w3.org/TR/2001/REC-SVG-20010904/DTD/svg10.dtd">
<svg version="1.0" xmlns="http://www.w3.org/2000/svg"
 width="512.000000pt" height="512.000000pt" viewBox="0 0 512.000000 512.000000"
 preserveAspectRatio="xMidYMid meet">
<metadata>
Created by potrace 1.14, written by Peter Selinger 2001-2017
</metadata>
<g transform="translate(0.000000,512.000000) scale(0.100000,-0.100000)"
fill="#000000" stroke="none">
<path d="M2685 5078 c-407 -68 -736 -303 -918 -655 -47 -91 -105 -250 -109
-297 -2 -23 -8 -29 -28 -28 -3 0 -92 3 -199 7 -180 6 -230 10 -236 17 -2 2
-13 37 -25 78 -58 202 -167 384 -326 549 -286 298 -298 309 -338 317 -92 16
-168 -74 -132 -159 6 -15 90 -109 186 -208 96 -100 197 -212 224 -248 94 -127
170 -317 192 -481 4 -30 8 -584 9 -1230 1 -646 5 -1191 9 -1210 18 -91 29
-128 57 -201 84 -218 279 -414 501 -502 36 -15 71 -27 77 -27 16 0 14 -8 -18
-60 -157 -255 -38 -590 244 -685 296 -99 608 126 606 439 0 34 -3 72 -6 86 -8
39 -47 140 -56 146 -5 3 -9 11 -9 19 0 11 92 13 514 14 l515 0 -30 -63 c-40
-85 -44 -105 -43 -216 1 -73 6 -107 23 -149 70 -173 219 -284 401 -298 219
-17 425 131 479 345 29 114 16 227 -38 329 l-28 51 238 0 c256 0 275 3 312 54
25 33 26 98 3 134 -37 56 34 53 -1497 54 -778 1 -1427 3 -1444 5 -174 23 -357
140 -458 293 -37 56 -97 192 -97 221 0 4 46 13 103 20 56 7 113 14 127 16 14
2 54 6 90 10 36 3 76 8 90 10 14 3 50 7 80 10 84 9 142 16 170 20 14 2 50 6
80 10 57 6 97 11 165 19 22 3 65 8 95 11 64 7 120 13 170 20 47 6 105 13 165
20 28 3 109 12 180 21 72 8 150 17 175 20 49 5 194 22 250 29 19 3 53 7 75 9
22 3 79 10 126 16 48 5 109 12 135 15 27 2 63 6 79 9 17 3 55 8 85 11 30 3 73
8 95 10 22 3 60 7 85 10 158 18 228 38 315 90 78 47 128 95 180 175 55 83 78
152 110 327 3 16 7 37 9 48 10 49 95 473 99 495 3 14 17 84 32 155 15 72 29
141 31 155 3 14 12 59 21 100 8 41 17 86 19 100 5 27 11 61 20 100 3 14 7 36
10 50 3 14 7 32 9 40 2 8 7 31 10 50 3 19 10 51 14 70 15 69 -7 127 -59 152
-23 11 -70 19 -140 22 -223 11 -406 19 -432 19 -23 1 -28 5 -29 26 -2 50 -8
82 -29 159 -61 228 -160 395 -334 567 -143 141 -229 195 -451 286 -134 55
-424 84 -580 57z m310 -289 c55 -123 149 -439 134 -453 -2 -2 -24 -7 -49 -10
-25 -4 -70 -10 -101 -14 -30 -5 -133 -9 -228 -11 l-173 -3 6 39 c13 88 97 364
131 430 8 16 15 33 15 40 0 32 29 41 134 41 l104 0 27 -59z m-579 -142 c-19
-58 -44 -150 -56 -204 -12 -54 -24 -101 -28 -105 -4 -3 -56 5 -117 18 -60 14
-118 27 -128 29 -60 13 -60 13 -25 62 42 58 139 155 205 205 52 40 175 110
181 103 2 -1 -13 -50 -32 -108z m949 64 c89 -54 265 -208 265 -232 0 -14 -245
-97 -255 -87 -3 3 -19 57 -35 119 -16 63 -38 141 -50 173 -11 33 -20 63 -20
67 0 10 41 -7 95 -40z m412 -478 c14 -34 50 -156 58 -198 3 -16 9 -74 12 -127
l6 -97 -59 -27 c-82 -37 -205 -82 -295 -108 l-76 -23 1 161 c0 89 -3 200 -6
247 l-8 86 93 27 c50 16 124 41 162 56 89 36 98 36 112 3z m-1791 -67 c22 -7
86 -23 144 -36 58 -12 121 -26 141 -31 l35 -9 -6 -57 c-4 -32 -6 -136 -5 -230
1 -95 0 -173 -4 -173 -19 0 -212 54 -283 79 -155 54 -138 36 -138 150 0 141
36 321 65 321 7 0 30 -6 51 -14z m1197 -291 c1 -241 -2 -265 -29 -275 -62 -24
-601 -33 -605 -10 0 3 -3 14 -5 25 -8 32 -11 346 -5 398 l6 49 190 0 c105 0
217 4 250 9 33 4 85 11 115 14 30 3 57 8 59 11 15 15 23 -61 24 -221z m-1586
-19 c13 -1 24 -4 26 -7 3 -2 7 -40 10 -84 35 -493 381 -929 855 -1079 45 -14
97 -28 115 -31 17 -3 39 -8 47 -10 74 -22 286 -21 425 1 373 60 732 335 894
685 62 134 111 304 111 384 l0 27 193 -7 c105 -3 195 -9 199 -13 10 -11 -275
-1412 -296 -1454 -46 -96 -148 -168 -256 -182 -96 -13 -117 -16 -170 -21 -30
-3 -66 -8 -80 -10 -14 -2 -54 -7 -90 -11 -36 -3 -72 -7 -80 -9 -8 -1 -49 -6
-90 -11 -41 -4 -77 -8 -80 -9 -3 -1 -36 -5 -75 -9 -38 -4 -81 -9 -95 -11 -14
-2 -70 -9 -125 -15 -128 -14 -172 -19 -215 -26 -19 -2 -57 -7 -85 -9 -27 -3
-81 -9 -120 -15 -38 -5 -97 -12 -130 -15 -33 -3 -73 -8 -90 -10 -16 -2 -93
-11 -170 -20 -77 -9 -151 -18 -165 -20 -14 -2 -54 -7 -90 -10 -36 -4 -72 -9
-80 -10 -8 -2 -44 -6 -80 -10 -36 -3 -76 -8 -90 -10 -27 -4 -99 -13 -169 -20
-57 -5 -151 -17 -173 -21 -10 -1 -48 -6 -85 -9 l-68 -7 0 1052 0 1052 175 -7
c96 -4 185 -8 197 -9z m2182 -363 c-74 -196 -238 -385 -431 -496 -54 -32 -73
-34 -63 -9 11 27 74 250 79 279 3 14 8 46 12 70 7 47 25 73 52 74 35 1 190 47
282 83 82 31 82 31 69 -1z m-1704 -57 c50 -14 128 -34 175 -44 l84 -17 8 -40
c16 -89 73 -305 95 -362 14 -36 -172 85 -270 176 -52 48 -137 162 -181 243
-41 75 -43 82 -18 75 9 -3 58 -17 107 -31z m1045 -149 c-22 -101 -39 -155
-116 -373 -8 -22 -20 -41 -27 -42 -16 -1 -208 -1 -229 0 -12 1 -27 30 -52 97
-50 134 -106 325 -106 359 0 6 72 9 178 9 172 -1 340 8 351 19 12 12 12 -19 1
-69z m-1022 -2596 c127 -65 164 -235 75 -338 -108 -123 -296 -103 -368 40 -95
191 105 394 293 298z m1805 -2 c163 -83 159 -318 -7 -395 -66 -31 -123 -31
-189 1 -152 73 -168 281 -31 378 70 49 151 55 227 16z"/>
</g>
</svg>
